<svg xmlns="http://www.w3.org/2000/svg" viewBox="0 0 200 200" fill="none">
  <circle cx="100" cy="100" r="100" fill="#F3F4F6"/>
  <circle cx="100" cy="100" r="96" fill="#E5E7EB"/>
  <path d="M100 60C111.046 60 120 68.9543 120 80C120 91.0457 111.046 100 100 100C88.9543 100 80 91.0457 80 80C80 68.9543 88.9543 60 100 60Z" fill="#9CA3AF"/>
  <path d="M65 140C65 123.431 78.4315 110 95 110H105C121.569 110 135 123.431 135 140V160H65V140Z" fill="#9CA3AF"/>
  <circle cx="100" cy="80" r="20" fill="#F3F4F6"/>
  <path d="M100 60C111.046 60 120 68.9543 120 80C120 91.0457 111.046 100 100 100C88.9543 100 80 91.0457 80 80C80 68.9543 88.9543 60 100 60Z" stroke="#6B7280" stroke-width="2"/>
  <path d="M70 140C70 126.193 81.1929 115 95 115H105C118.807 115 130 126.193 130 140V155H70V140Z" stroke="#6B7280" stroke-width="2"/>
</svg>